<svg xmlns="http://www.w3.org/2000/svg" width="16.977102362204725" height="18.839622047244095" viewBox="6846501.4 1463298.4 215609.2 239263.2"><g transform="translate(6954306.0 1582930.0) rotate(0.0) scale(1 1) translate(-98943.0 -110770.0) scale(0.8366105363733601 0.788191010196603) translate(-7275643.0 -52391.0)"><g transform="translate(7390799.5 218322.5) rotate(0.0) scale(1 1) translate(-115156.5 -115142.5) scale(1.0 1.0) translate(-7275643.0 -103180.0)"><g transform="translate(7390799.5 218322.5) rotate(0.0) scale(1 1) translate(-115156.5 -115142.5)"><path transform="scale(1.0 1.0)" d="M135748 230285 L93380 230285 C92476 230257 91601 229890 90951 229240 C90301 228591 89934 227715 89934 226811 L89990 201051 L71603 193312 L53328 211530 C51972 212858 49797 212858 48470 211530 L18586 181562 C17936 180912 17569 180037 17569 179133 C17569 178229 17936 177353 18586 176704 L36889 158485 L29206 140069 L3447 140013 C1554 140013 0 138459 0 136567 L85 94227 C85 93323 452 92447 1102 91798 C1752 91148 2627 90781 3531 90781 L3531 90781 L29376 90837 L36945 72393 L18755 54147 C17400 52791 17428 50616 18755 49288 L49599 18529 C50249 17879 51125 17512 52029 17512 L52029 17512 C52932 17512 53808 17879 54457 18529 L72648 36804 L91092 29262 L91148 3446 C91148 1554 92702 0 94594 0 L94594 0 L130777 56 C132670 56 134223 1610 134223 3502 C134223 5395 132670 6948 130777 6948 L98041 6948 C98041 6948 98012 31578 98012 31578 C98012 32962 97165 34234 95866 34770 L73156 44063 C71885 44600 70388 44289 69399 43300 L52029 25845 L26043 51746 L43414 69173 C44402 70162 44685 71631 44148 72902 L34827 95583 C34290 96882 33048 97729 31635 97729 L31635 97729 L6921 97673 L6836 133149 L31466 133206 C32850 133206 34092 134053 34629 135324 L44091 157977 C44628 159276 44346 160745 43329 161734 L25817 179161 L50842 204243 L68326 186816 C69314 185827 70812 185545 72082 186081 L94707 195600 C95979 196137 96826 197408 96826 198792 L96769 223393 L132245 223393 C132245 223393 132274 198735 132274 198735 C132274 197323 133121 196080 134420 195543 L157130 186279 C158429 185770 159898 186053 160859 187042 L178229 204469 L204215 178568 L186844 161140 C185855 160152 185573 158683 186110 157384 L195459 134703 C195996 133403 197238 132584 198651 132584 L223365 132584 C223365 132584 223450 97164 223450 97164 L198820 97108 C197436 97108 196194 96261 195656 94990 L188539 77986 C187804 76235 188623 74201 190375 73466 C192126 72732 194159 73551 194894 75302 L201108 90188 L226868 90244 C228760 90244 230314 91798 230314 93690 L230229 136030 C230229 137923 228676 139476 226783 139476 L200939 139476 C200939 139476 193341 157864 193341 157864 L211531 176111 C212180 176760 212547 177636 212547 178540 C212547 179443 212180 180319 211531 180969 L180687 211728 C179330 213056 177156 213056 175828 211728 L157638 193481 L139194 200995 L139194 226811 C139137 228704 137613 230257 135720 230257 Z" fill="#01355A" stroke="none" stroke-width="2824" stroke-linecap="butt" stroke-linejoin="miter"/></g><g transform="translate(7391254.5 220355.0) rotate(0.0) scale(1 1) translate(-53753.5 -51280.0)"><path transform="scale(1.0 1.0)" d="M53723 102561 C53723 102561 53667 102561 53638 102561 C39290 102561 25788 96940 15648 86743 C-5282 65757 -5197 31636 15789 10707 C20111 6413 25025 2939 30421 340 C32143 -479 34205 228 35024 1950 C35844 3673 35138 5735 33415 6555 C28698 8814 24404 11865 20648 15621 C2345 33868 2288 63610 20535 81913 C29375 90782 41126 95669 53638 95697 L53723 95697 C66208 95697 77957 90839 86827 82026 C95894 72988 100780 60984 100610 48188 C100610 46296 102107 44714 104000 44686 C105893 44714 107475 46183 107503 48075 C107700 62735 102079 76519 91685 86885 C81545 96996 68072 102561 53723 102561 Z" fill="#01355A" stroke="none" stroke-width="2824" stroke-linecap="butt" stroke-linejoin="miter"/></g></g><g transform="translate(7439432.5 145927.5) rotate(0.0) scale(1 1) translate(-72743.5 -93536.5)"><path transform="scale(1.0 1.0)" d="M34985 187074 C34308 187074 33630 186876 33037 186452 C31483 185379 31087 183232 32161 181650 L111926 66550 C112971 65025 115033 64629 116586 65590 L137092 78413 L123026 7715 L53317 26046 L73823 38870 C75377 39858 75913 41864 75009 43474 L6457 165579 C5526 167245 3435 167838 1769 166906 C102 165974 -491 163884 441 162218 L67383 42993 L42894 27684 C41736 26950 41114 25594 41312 24238 C41510 22883 42527 21781 43854 21414 L124834 117 C125766 -137 126727 32 127546 540 C128365 1049 128902 1868 129099 2800 L145425 84910 C145679 86265 145143 87650 144013 88412 C142883 89203 141386 89231 140228 88497 L115739 73188 L37866 185577 C37189 186537 36115 187045 35042 187045 Z" fill="#17A3A3" stroke="none" stroke-width="2824" stroke-linecap="butt" stroke-linejoin="miter"/></g></g></svg>