<svg xmlns="http://www.w3.org/2000/svg" width="17.538944881889766" height="17.53524409448819" viewBox="6401632.2 2161408.2 222744.6 222697.6"><g transform="translate(6513004.5 2272757.0) rotate(0.0) scale(1 1) translate(-103122.5 -103099.0) scale(0.8366088631984586 0.7881915377529061) translate(-6743160.0 -937325.0)"><g transform="translate(6866422.5 1068129.5) rotate(0.0) scale(1 1) translate(-123262.5 -130804.5)"><path transform="scale(1.0 1.0)" d="M183200 261610 L3446 261610 C1553 261610 0 260056 0 258164 L0 3446 C0 1553 1553 0 3446 0 L243080 0 C244973 0 246526 1553 246526 3446 L246526 202520 C246526 203480 246131 204384 245425 205034 L185573 260677 C184923 261271 184104 261610 183228 261610 Z M6892 254718 L181844 254718 L239606 201023 L239606 6892 L6863 6892 L6863 254718 Z M243080 202520 L243080 202520 L243080 202520 Z" fill="#01355A" stroke="none" stroke-width="2824" stroke-linecap="butt" stroke-linejoin="miter"/></g><g transform="translate(6956289.5 1167666.5) rotate(0.0) scale(1 1) translate(-33375.5 -31267.5)"><path transform="scale(1.0 1.0)" d="M3446 62536 C2966 62536 2514 62451 2062 62253 C819 61716 0 60474 0 59090 L0 3446 C0 1554 1554 0 3446 0 L63298 0 C64710 0 65982 876 66518 2175 C67026 3502 66688 5000 65671 5960 L5819 61603 C5169 62197 4322 62536 3474 62536 Z M6892 6892 L6892 51181 L54542 6892 L6892 6892 Z" fill="#01355A" stroke="none" stroke-width="2824" stroke-linecap="butt" stroke-linejoin="miter"/></g><g transform="translate(6869218.5 1061662.0) rotate(0.0) scale(1 1) translate(-90526.5 -84595.0) scale(1.0 1.0) translate(-6778692.0 -977067.0)"><g transform="translate(6866408.5 980512.5) rotate(0.0) scale(1 1) translate(-42099.5 -3445.5)"><path transform="scale(1.0 1.0)" d="M80753 6892 L3446 6892 C1553 6892 0 5338 0 3446 C0 1553 1553 0 3446 0 L80753 0 C82646 0 84199 1553 84199 3446 C84199 5338 82646 6892 80753 6892 Z" fill="#17A3A3" stroke="none" stroke-width="2824" stroke-linecap="butt" stroke-linejoin="miter"/></g><g transform="translate(6824280.0 1029094.5) rotate(0.0) scale(1 1) translate(-45588.0 -3445.5)"><path transform="scale(1.0 1.0)" d="M87731 6892 L3446 6892 C1554 6892 0 5338 0 3446 C0 1554 1554 0 3446 0 L87731 0 C89623 0 91176 1554 91176 3446 C91176 5338 89623 6892 87731 6892 Z" fill="#17A3A3" stroke="none" stroke-width="2824" stroke-linecap="butt" stroke-linejoin="miter"/></g><g transform="translate(6941330.0 1029094.5) rotate(0.0) scale(1 1) translate(-18416.0 -3445.5)"><path transform="scale(1.0 1.0)" d="M33386 6892 L3446 6892 C1554 6892 0 5338 0 3446 C0 1554 1554 0 3446 0 L33386 0 C35279 0 36832 1554 36832 3446 C36832 5338 35279 6892 33386 6892 Z" fill="#17A3A3" stroke="none" stroke-width="2824" stroke-linecap="butt" stroke-linejoin="miter"/></g><g transform="translate(6824280.0 1066999.5) rotate(0.0) scale(1 1) translate(-45588.0 -3445.5)"><path transform="scale(1.0 1.0)" d="M87731 6892 L3446 6892 C1554 6892 0 5338 0 3446 C0 1553 1554 0 3446 0 L87731 0 C89623 0 91176 1553 91176 3446 C91176 5338 89623 6892 87731 6892 Z" fill="#17A3A3" stroke="none" stroke-width="2824" stroke-linecap="butt" stroke-linejoin="miter"/></g><g transform="translate(6941330.0 1066999.5) rotate(0.0) scale(1 1) translate(-18416.0 -3445.5)"><path transform="scale(1.0 1.0)" d="M33386 6892 L3446 6892 C1554 6892 0 5338 0 3446 C0 1553 1554 0 3446 0 L33386 0 C35279 0 36832 1553 36832 3446 C36832 5338 35279 6892 33386 6892 Z" fill="#17A3A3" stroke="none" stroke-width="2824" stroke-linecap="butt" stroke-linejoin="miter"/></g><g transform="translate(6824280.0 1104905.5) rotate(0.0) scale(1 1) translate(-45588.0 -3445.5)"><path transform="scale(1.0 1.0)" d="M87731 6892 L3446 6892 C1554 6892 0 5338 0 3446 C0 1554 1554 0 3446 0 L87731 0 C89623 0 91176 1554 91176 3446 C91176 5338 89623 6892 87731 6892 Z" fill="#17A3A3" stroke="none" stroke-width="2824" stroke-linecap="butt" stroke-linejoin="miter"/></g><g transform="translate(6941330.0 1104905.5) rotate(0.0) scale(1 1) translate(-18416.0 -3445.5)"><path transform="scale(1.0 1.0)" d="M33386 6892 L3446 6892 C1554 6892 0 5338 0 3446 C0 1554 1554 0 3446 0 L33386 0 C35279 0 36832 1554 36832 3446 C36832 5338 35279 6892 33386 6892 Z" fill="#17A3A3" stroke="none" stroke-width="2824" stroke-linecap="butt" stroke-linejoin="miter"/></g><g transform="translate(6824280.0 1142810.5) rotate(0.0) scale(1 1) translate(-45588.0 -3445.5)"><path transform="scale(1.0 1.0)" d="M87731 6892 L3446 6892 C1554 6892 0 5338 0 3446 C0 1553 1554 0 3446 0 L87731 0 C89623 0 91176 1553 91176 3446 C91176 5338 89623 6892 87731 6892 Z" fill="#17A3A3" stroke="none" stroke-width="2824" stroke-linecap="butt" stroke-linejoin="miter"/></g></g></g></svg>